# xmcd
#
# Track frame offsets:
#	150
#	14690
#	26940
#	42675
#	58414
#	82162
#	97600
#	110775
#	124947
#	141162
#
# Disc length: 2029 seconds
#
# Revision: 1
# Processed by: cddbd v1.5.2PL0 Copyright (c) Steve Scherf et al.
# Submitted via: audiograbber 1.83.01
#
DISCID=9807eb0a
DTITLE=Various Artist - Kulkurit Maailmalle...
DYEAR=1998
DGENRE=Pop
TTITLE0=Sonja Lumme and Timo Turpeinen - Kulkurit Maailmalle
TTITLE1=Sonja Lumme - En Koskaan
TTITLE2=Senators - Yeh Yeh
TTITLE3=Sonja Lumme and Timo Turpeinen - Luokses' Tuun
TTITLE4=Senators - Sleep Walk
TTITLE5=Sonja Lumme - Pastorin Poika
TTITLE6=Senators - Transpointing
TTITLE7=Sonja Lumme - Kun Suutelen
TTITLE8=Sonja Lumme and Timo Turpeinen - Sun Vain
TTITLE9=Sonja Lumme and Timo Turpeinen - Kulkurit Maailmalle (Transpoint Mix)
EXTD=TR.
EXTT0=
EXTT1=
EXTT2=
EXTT3=
EXTT4=
EXTT5=
EXTT6=
EXTT7=
EXTT8=
EXTT9=
PLAYORDER=
